<svg width="40" height="40" viewBox="0 0 40 40" fill="none" xmlns="http://www.w3.org/2000/svg">
<path d="M31.916 0H8.07898C3.61453 0 0 3.61498 0 8.08V31.925C0 36.385 3.61453 40 8.07898 40H31.921C36.3805 40 40 36.385 40 31.92V8.08C39.995 3.61498 36.3805 0 31.916 0Z" fill="url(#paint0_linear_119_33)"/>
<path d="M19.8269 9.18978L20.6368 7.78976C21.1368 6.91473 22.2516 6.61977 23.1265 7.11976C24.0014 7.61974 24.2964 8.73472 23.7964 9.60975L15.9924 23.1198H21.6367C23.4664 23.1198 24.4913 25.2698 23.6964 26.7598H7.14856C6.13871 26.7598 5.32879 25.9498 5.32879 24.9398C5.32879 23.9298 6.13871 23.1198 7.14856 23.1198H11.788L17.7273 12.8248L15.8725 9.60475C15.3726 8.72972 15.6675 7.62474 16.5425 7.11476C17.4174 6.61477 18.5222 6.90973 19.0322 7.78476L19.8269 9.18978Z" fill="white"/>
<path d="M12.8079 28.635L11.0581 31.6699C10.5582 32.545 9.44332 32.8399 8.5684 32.34C7.69348 31.84 7.39856 30.725 7.89848 29.85L9.19832 27.6C10.6681 27.145 11.8629 27.495 12.8079 28.635Z" fill="white"/>
<path d="M27.8754 23.1298H32.6098C33.6196 23.1298 34.4296 23.9398 34.4296 24.9498C34.4296 25.9597 33.6196 26.7698 32.6098 26.7698H29.9801L31.7549 29.8498C32.2548 30.7248 31.9599 31.8298 31.085 32.3398C30.21 32.8397 29.1052 32.5448 28.5953 31.6698C25.6057 26.4847 23.3609 22.6048 21.8711 20.0198C20.3463 17.3898 21.4362 14.7498 22.5111 13.8548C23.706 15.9048 25.4907 18.9998 27.8754 23.1298Z" fill="white"/>
<defs>
<linearGradient id="paint0_linear_119_33" x1="20" y1="0" x2="20" y2="40" gradientUnits="userSpaceOnUse">
<stop stop-color="#00BFFC"/>
<stop offset="1" stop-color="#0073F6"/>
</linearGradient>
</defs>
</svg>
