<svg width="20" height="20" viewBox="0 0 20 20" fill="none" xmlns="http://www.w3.org/2000/svg">
<path opacity="0.4" fill-rule="evenodd" clip-rule="evenodd" d="M10 20C15.5228 20 20 15.5228 20 10C20 4.47715 15.5228 0 10 0C4.47715 0 0 4.47715 0 10C0 15.5228 4.47715 20 10 20ZM12.5255 5.95946C12.9439 5.54104 13.6223 5.54104 14.0407 5.95946C14.4591 6.37788 14.4591 7.05627 14.0407 7.47469L11.5152 10.0002L14.0405 12.5254C14.4589 12.9439 14.4589 13.6223 14.0405 14.0407C13.6221 14.4591 12.9437 14.4591 12.5253 14.0407L10 11.5154L7.47474 14.0407C7.05632 14.4591 6.37793 14.4591 5.95951 14.0407C5.54109 13.6223 5.54109 12.9439 5.95951 12.5254L8.48477 10.0002L5.95927 7.47469C5.54085 7.05627 5.54085 6.37788 5.95927 5.95946C6.37769 5.54104 7.05608 5.54104 7.4745 5.95946L10 8.48496L12.5255 5.95946Z" fill="white"/>
</svg>
