<svg width="182" height="72" viewBox="0 0 182 72" fill="none" xmlns="http://www.w3.org/2000/svg">
<g filter="url(#filter0_d_119_466)">
<path d="M70.0838 21.9475H73.5204C74.4261 21.9475 74.879 22.2819 74.879 22.9506C74.879 23.6193 74.4261 23.9537 73.5204 23.9537H70.0838V21.9475ZM70.0838 28.3673H73.3405C75.5384 28.3673 77.2167 27.8858 78.3756 26.9228C79.5078 26 80.0739 24.6759 80.0739 22.9506C80.0739 21.2253 79.5078 19.9012 78.3756 18.9784C77.2167 18.0154 75.5384 17.534 73.3405 17.534H64.8889V31.5772H70.0838V28.3673Z" fill="white"/>
<path d="M93.4622 17.534V22.2485H86.669V17.534H81.4741V31.5772H86.669V26.8627H93.4622V31.5772H98.6571V17.534H93.4622Z" fill="white"/>
<path d="M100.654 31.5772H105.849V17.534H100.654V31.5772Z" fill="white"/>
<path d="M119.842 17.534V25.0571L113.848 17.534H107.854V31.5772H113.049V24.054L119.043 31.5772H125.037V17.534H119.842Z" fill="white"/>
<path d="M135.526 27.3642C132.995 27.3642 131.73 26.428 131.73 24.5556C131.73 22.6831 132.995 21.7469 135.526 21.7469C138.057 21.7469 139.322 22.6831 139.322 24.5556C139.322 26.428 138.057 27.3642 135.526 27.3642ZM135.526 17.3333C132.582 17.3333 130.338 17.9686 128.793 19.2392C127.288 20.483 126.535 22.2551 126.535 24.5556C126.535 26.856 127.288 28.6281 128.793 29.8719C130.338 31.1425 132.582 31.7778 135.526 31.7778C138.47 31.7778 140.714 31.1425 142.26 29.8719C143.765 28.6281 144.517 26.856 144.517 24.5556C144.517 22.2551 143.765 20.483 142.26 19.2392C140.714 17.9686 138.47 17.3333 135.526 17.3333Z" fill="white"/>
<path d="M160.805 17.534L156.01 23.5525L151.215 17.534H146.02V31.5772H151.215V25.1574L156.01 31.1759L160.805 25.1574V31.5772H166V17.534H160.805Z" fill="white"/>
<path d="M70.225 46.0525V40.8364H73.3651C75.65 40.8364 76.7925 41.7058 76.7925 43.4444C76.7925 45.1831 75.65 46.0525 73.3651 46.0525H70.225ZM64.8889 36.4228V50.466H73.3651C76.2794 50.466 78.4823 49.8441 79.9737 48.6003C81.4103 47.41 82.1286 45.6914 82.1286 43.4444C82.1286 41.1975 81.4103 39.4789 79.9737 38.2886C78.4823 37.0448 76.2794 36.4228 73.3651 36.4228H64.8889Z" fill="url(#paint0_linear_119_466)"/>
<path d="M83.6687 50.466H89.0048V36.4228H83.6687V50.466Z" fill="url(#paint1_linear_119_466)"/>
<path d="M99.7869 42.2407V45.25H103.194C102.564 46.1862 101.429 46.6543 99.7869 46.6543C97.1872 46.6543 95.8874 45.5844 95.8874 43.4444C95.8874 41.3045 97.1872 40.2346 99.7869 40.2346C101.292 40.2346 102.373 40.6358 103.03 41.4383H108.756C108.331 39.7665 107.374 38.4892 105.882 37.6065C104.35 36.6836 102.318 36.2222 99.7869 36.2222C96.7631 36.2222 94.4576 36.8575 92.8704 38.1281C91.3243 39.3719 90.5513 41.144 90.5513 43.4444C90.5513 45.7449 91.3243 47.517 92.8704 48.7608C94.4576 50.0314 96.7631 50.6667 99.7869 50.6667C102.811 50.6667 105.116 50.0314 106.703 48.7608C108.249 47.517 109.022 45.7449 109.022 43.4444C109.022 43.1502 108.988 42.749 108.92 42.2407H99.7869Z" fill="url(#paint2_linear_119_466)"/>
<path d="M110.566 50.466H115.902V36.4228H110.566V50.466Z" fill="url(#paint3_linear_119_466)"/>
<path d="M117.14 36.4228V40.8364H122.477V50.466H127.813V40.8364H133.149V36.4228H117.14Z" fill="url(#paint4_linear_119_466)"/>
<path d="M137.463 36.4228L131.306 50.466H136.847L137.894 48.0586H144.831L145.877 50.466H151.419L145.262 36.4228H137.463ZM141.362 40.1744L143.23 44.4475H139.495L141.362 40.1744Z" fill="url(#paint5_linear_119_466)"/>
<path d="M152.454 36.4228V50.466H166V46.0525H157.791V36.4228H152.454Z" fill="url(#paint6_linear_119_466)"/>
<path d="M26.1137 51.3896L26.1137 34C26.1137 28.5399 30.54 24.1136 36.0001 24.1136C41.4602 24.1136 45.8865 28.5399 45.8865 34C45.8865 38.5645 42.7931 42.4065 38.5885 43.544C37.3055 43.8911 36.2274 44.9455 36.2274 46.2746V51.526C36.2274 52.8872 37.3444 54.0018 38.6934 53.8202C48.4654 52.5048 56 44.1323 56 34C56 22.9543 47.0457 14 36 14C24.9543 14 16 22.9543 16 34V51.5547C16 52.9052 17.0948 54 18.4453 54H25.1446C25.6798 54 26.1136 53.5662 26.1136 53.031L26.1137 51.3896Z" fill="url(#paint7_linear_119_466)"/>
</g>
<defs>
<filter id="filter0_d_119_466" x="0" y="0" width="182" height="72" filterUnits="userSpaceOnUse" color-interpolation-filters="sRGB">
<feFlood flood-opacity="0" result="BackgroundImageFix"/>
<feColorMatrix in="SourceAlpha" type="matrix" values="0 0 0 0 0 0 0 0 0 0 0 0 0 0 0 0 0 0 127 0" result="hardAlpha"/>
<feOffset dy="2"/>
<feGaussianBlur stdDeviation="8"/>
<feComposite in2="hardAlpha" operator="out"/>
<feColorMatrix type="matrix" values="0 0 0 0 0 0 0 0 0 0 0 0 0 0 0 0 0 0 0.25 0"/>
<feBlend mode="normal" in2="BackgroundImageFix" result="effect1_dropShadow_119_466"/>
<feBlend mode="normal" in="SourceGraphic" in2="effect1_dropShadow_119_466" result="shape"/>
</filter>
<linearGradient id="paint0_linear_119_466" x1="36" y1="14" x2="36" y2="54" gradientUnits="userSpaceOnUse">
<stop stop-color="#08CBD4"/>
<stop offset="1" stop-color="#007378"/>
</linearGradient>
<linearGradient id="paint1_linear_119_466" x1="36" y1="14" x2="36" y2="54" gradientUnits="userSpaceOnUse">
<stop stop-color="#08CBD4"/>
<stop offset="1" stop-color="#007378"/>
</linearGradient>
<linearGradient id="paint2_linear_119_466" x1="36" y1="14" x2="36" y2="54" gradientUnits="userSpaceOnUse">
<stop stop-color="#08CBD4"/>
<stop offset="1" stop-color="#007378"/>
</linearGradient>
<linearGradient id="paint3_linear_119_466" x1="36" y1="14" x2="36" y2="54" gradientUnits="userSpaceOnUse">
<stop stop-color="#08CBD4"/>
<stop offset="1" stop-color="#007378"/>
</linearGradient>
<linearGradient id="paint4_linear_119_466" x1="36" y1="14" x2="36" y2="54" gradientUnits="userSpaceOnUse">
<stop stop-color="#08CBD4"/>
<stop offset="1" stop-color="#007378"/>
</linearGradient>
<linearGradient id="paint5_linear_119_466" x1="36" y1="14" x2="36" y2="54" gradientUnits="userSpaceOnUse">
<stop stop-color="#08CBD4"/>
<stop offset="1" stop-color="#007378"/>
</linearGradient>
<linearGradient id="paint6_linear_119_466" x1="36" y1="14" x2="36" y2="54" gradientUnits="userSpaceOnUse">
<stop stop-color="#08CBD4"/>
<stop offset="1" stop-color="#007378"/>
</linearGradient>
<linearGradient id="paint7_linear_119_466" x1="36" y1="14" x2="36" y2="54" gradientUnits="userSpaceOnUse">
<stop stop-color="#08CBD4"/>
<stop offset="1" stop-color="#007378"/>
</linearGradient>
</defs>
</svg>
